<?xml version="1.0" standalone="no"?>
<!DOCTYPE svg PUBLIC "-//W3C//DTD SVG 20010904//EN"
 "http://www.w3.org/TR/2001/REC-SVG-20010904/DTD/svg10.dtd">
<svg version="1.0" xmlns="http://www.w3.org/2000/svg"
 width="920.000000pt" height="920.000000pt" viewBox="0 0 920.000000 920.000000"
 preserveAspectRatio="xMidYMid meet">
<metadata>
Created by potrace 1.16, written by Peter Selinger 2001-2019
</metadata>
<g transform="translate(0.000000,920.000000) scale(0.100000,-0.100000)"
fill="#000000" stroke="none">
<path d="M8550 9193 c-8 -3 -28 -11 -45 -19 -34 -15 -224 -96 -365 -156 -52
-22 -99 -43 -105 -47 -5 -4 -73 -34 -150 -66 -77 -32 -144 -61 -150 -65 -5 -4
-53 -26 -105 -48 -52 -22 -129 -56 -170 -75 -41 -19 -104 -47 -140 -62 -36
-15 -83 -35 -105 -45 -113 -52 -176 -80 -180 -80 -2 0 -37 -15 -77 -34 -107
-49 -155 -70 -228 -101 -36 -15 -93 -40 -128 -56 -104 -49 -116 -49 -169 2
-62 61 -90 113 -98 185 -7 62 -7 62 -43 68 -21 3 -51 6 -69 6 -21 0 -48 12
-79 36 -90 69 -204 92 -319 64 -43 -11 -80 -18 -80 -17 -1 1 -27 54 -59 117
-31 63 -65 126 -75 139 l-18 24 -47 -22 c-25 -13 -46 -27 -46 -33 0 -5 31 -73
70 -151 l70 -142 -44 -45 c-79 -81 -116 -196 -93 -295 3 -13 -10 -36 -38 -67
-44 -49 -75 -104 -75 -132 0 -30 50 -66 90 -66 41 0 55 11 65 53 4 15 10 27
14 27 4 0 18 -19 31 -42 13 -24 37 -61 53 -83 l29 -40 -75 -35 c-41 -19 -100
-44 -131 -54 l-57 -19 -34 33 c-19 18 -37 46 -40 61 -4 16 -11 31 -16 34 -5 4
-9 21 -9 40 0 83 -31 115 -113 115 -52 0 -69 5 -106 30 -78 53 -195 72 -298
47 -56 -13 -63 -13 -68 2 -4 9 -5 16 -3 16 2 1 -4 12 -13 25 -9 14 -37 73 -63
131 l-48 107 -58 -25 -58 -26 21 -46 c11 -25 43 -91 70 -145 32 -64 47 -104
41 -111 -5 -7 -37 -47 -71 -89 -74 -92 -93 -152 -76 -241 l10 -55 -54 -54
c-60 -61 -68 -94 -31 -141 18 -24 26 -27 61 -22 23 3 50 16 67 32 l27 26 17
-25 c9 -14 16 -28 16 -32 0 -4 7 -16 17 -26 9 -10 14 -20 12 -22 -2 -2 -66
-31 -142 -65 -76 -34 -146 -66 -155 -71 -10 -4 -33 -15 -52 -23 -19 -8 -75
-31 -123 -52 l-89 -37 -36 34 c-20 19 -98 90 -172 158 -74 68 -185 171 -245
229 -61 58 -212 201 -335 318 -263 247 -369 353 -353 353 6 0 16 -7 23 -15 6
-8 21 -17 33 -21 20 -6 118 -68 197 -124 103 -74 350 -278 485 -400 115 -104
327 -270 346 -270 33 0 -275 313 -516 525 -83 73 -157 141 -165 150 -14 17
-13 17 8 6 13 -7 68 -44 122 -82 96 -68 182 -114 200 -107 8 3 -29 61 -90 140
l-25 33 40 -30 c22 -17 42 -33 45 -36 3 -3 47 -41 99 -84 52 -43 187 -169 300
-280 251 -245 310 -295 344 -295 28 0 77 19 77 30 0 3 -48 54 -107 112 -100
98 -158 151 -443 401 -57 51 -139 124 -181 163 -119 111 -187 138 -365 149
-65 4 -130 12 -144 17 -14 5 -33 11 -43 13 -11 3 -67 33 -125 69 -59 35 -125
69 -147 75 -126 35 -246 -14 -302 -122 -24 -46 -27 -63 -28 -152 l0 -100 85
-175 c47 -96 91 -181 97 -188 7 -7 13 -18 13 -23 0 -5 12 -28 27 -52 14 -23
36 -58 48 -77 46 -73 196 -297 235 -350 184 -253 224 -306 244 -326 18 -17 18
-19 -10 -41 -16 -13 -45 -30 -64 -39 -19 -9 -42 -23 -50 -30 -14 -12 -23 -7
-67 31 -51 44 -51 45 -42 86 7 29 6 48 -3 67 -12 25 -18 27 -88 30 -43 2 -81
9 -90 16 -45 39 -234 60 -311 34 -57 -18 -69 -17 -83 6 -6 11 -26 44 -44 72
-17 29 -32 57 -32 63 0 5 -4 11 -8 13 -4 2 -20 24 -35 51 -15 26 -31 47 -35
47 -12 0 -82 -61 -82 -71 0 -5 19 -37 43 -72 24 -35 59 -91 77 -124 l34 -61
-41 -39 c-75 -72 -107 -174 -85 -269 9 -40 7 -45 -34 -105 -24 -34 -44 -69
-44 -77 0 -8 11 -30 26 -49 29 -38 59 -43 97 -13 14 11 34 20 45 20 17 0 50
-34 75 -77 7 -12 -56 -57 -162 -118 l-59 -33 -41 43 c-35 37 -41 49 -41 87 0
57 -13 68 -75 68 -30 0 -60 6 -73 16 -46 32 -155 54 -253 50 -52 -2 -103 -6
-114 -10 -18 -6 -28 11 -87 134 l-67 140 -35 -20 c-65 -39 -65 -36 9 -189 l68
-139 -37 -33 c-20 -17 -49 -52 -64 -77 -24 -42 -26 -57 -28 -153 -1 -100 -3
-111 -30 -154 -16 -26 -39 -63 -51 -83 l-22 -37 35 -36 c24 -25 43 -35 59 -34
34 4 41 10 66 60 12 25 26 45 31 45 4 0 15 -18 24 -40 9 -22 20 -40 25 -40 26
0 -1 -25 -88 -83 -93 -61 -134 -86 -333 -211 -209 -130 -260 -163 -340 -215
-47 -31 -89 -60 -95 -64 -5 -5 -29 -21 -51 -35 -120 -77 -165 -115 -184 -152
-26 -51 -25 -80 5 -139 31 -61 71 -96 163 -138 88 -41 146 -47 221 -23 31 10
83 26 116 35 63 18 107 32 190 59 28 9 59 18 70 20 21 5 189 56 265 81 25 8
54 17 65 20 11 2 108 32 215 65 107 33 218 67 245 76 46 13 106 31 180 54 17
5 53 16 80 24 28 9 138 43 245 76 107 33 202 62 210 64 8 3 58 18 110 34 97
31 239 75 365 114 39 12 115 36 170 53 55 18 125 40 155 49 30 9 98 30 150 47
52 17 100 32 105 33 10 2 96 29 330 103 61 19 133 42 160 51 28 8 67 21 88 29
20 7 52 13 70 13 56 0 162 -45 226 -96 14 -11 55 -38 91 -58 36 -20 103 -60
150 -88 47 -28 182 -100 300 -160 296 -151 481 -256 496 -279 2 -4 -43 -65
-100 -136 -58 -70 -126 -158 -152 -196 l-48 -67 32 -33 c17 -17 47 -40 66 -51
33 -18 37 -18 93 -1 32 9 77 23 99 31 23 8 52 17 64 19 23 4 97 29 135 46 23
9 223 78 245 84 8 2 42 13 75 25 64 24 132 22 184 -4 45 -22 121 -37 158 -30
29 5 38 14 54 48 10 22 19 64 19 91 0 28 3 59 6 70 4 17 59 55 172 120 136 78
248 152 384 254 112 84 127 109 102 172 -23 57 -56 79 -117 79 -48 0 -82 -7
-242 -50 -38 -10 -97 -25 -130 -34 -33 -8 -78 -19 -100 -25 -32 -8 -193 -41
-202 -41 -5 0 -34 68 -38 88 -2 12 -10 36 -18 54 -8 18 -23 58 -33 88 -9 30
-23 69 -29 85 -7 17 -18 46 -25 65 -29 85 -75 155 -123 187 -64 43 -121 51
-181 25 -54 -24 -78 -59 -108 -157 -11 -38 -23 -74 -26 -78 -7 -13 -87 69
-220 223 -64 74 -120 137 -123 140 -24 21 -88 114 -84 121 4 5 78 57 167 116
238 160 431 290 543 368 55 37 172 117 260 177 88 60 212 145 275 189 63 44
138 96 165 115 77 53 161 112 284 199 62 44 132 94 156 110 23 17 53 38 66 48
13 9 53 38 89 64 36 26 85 62 110 80 25 18 72 52 105 75 33 23 62 44 65 48 3
3 28 22 57 42 28 20 60 44 70 52 10 8 72 56 138 105 66 50 148 112 181 138 34
26 97 75 140 108 44 33 81 62 84 65 3 3 43 35 90 71 96 75 187 168 244 252
l38 57 -5 88 c-6 111 -30 182 -79 233 -34 35 -43 39 -85 38 -27 0 -55 -3 -63
-6z m-3115 -2955 c72 -86 141 -169 217 -263 60 -74 138 -146 201 -184 61 -37
107 -12 113 62 4 47 35 126 61 157 46 55 138 27 176 -55 27 -56 114 -435 109
-472 -1 -9 -84 -32 -158 -42 -102 -14 -129 -4 -245 91 -161 131 -307 249 -369
298 -82 65 -276 239 -339 303 l-54 55 44 28 c105 66 155 94 169 94 9 0 42 -32
75 -72z"/>
<path d="M4273 5670 c-37 -15 -56 -55 -50 -102 8 -58 52 -116 125 -164 35 -23
75 -53 90 -67 35 -34 157 -97 187 -97 18 0 30 -12 52 -52 19 -37 47 -67 92
-100 35 -27 67 -48 71 -48 4 0 16 34 26 76 l19 77 69 35 c64 32 68 36 50 49
-10 8 -29 22 -41 33 -39 34 -116 66 -163 69 -28 1 -49 8 -55 18 -39 62 -82
104 -160 159 -49 35 -107 76 -129 91 -30 21 -51 28 -100 30 -33 2 -71 -1 -83
-7z"/>
<path d="M2775 5190 c-36 -24 -43 -41 -44 -103 -2 -92 38 -148 168 -238 47
-33 109 -77 136 -99 63 -51 148 -92 201 -98 38 -4 42 -8 60 -51 24 -58 72
-112 146 -162 85 -58 84 -58 92 3 16 122 34 149 136 198 38 19 70 37 70 42 0
8 -109 84 -158 110 -37 18 -117 38 -160 38 -22 0 -31 8 -45 40 -24 53 -113
139 -200 196 -40 26 -91 60 -114 76 -73 50 -123 68 -193 68 -48 0 -73 -5 -95
-20z"/>
<path d="M4083 5079 c-79 -30 -93 -54 -93 -158 1 -134 50 -219 177 -302 42
-27 91 -61 107 -74 211 -166 346 -248 431 -260 83 -12 83 -12 118 -88 26 -55
51 -88 108 -143 41 -39 88 -79 104 -90 17 -10 47 -31 67 -47 20 -16 41 -26 46
-23 8 5 18 55 28 144 2 19 10 58 19 87 17 59 35 74 188 149 42 22 77 42 77 46
0 20 -184 145 -261 178 -53 23 -161 42 -204 35 -28 -4 -32 -1 -58 58 -38 82
-150 194 -289 287 -59 40 -111 72 -116 72 -5 0 -15 7 -23 16 -7 8 -49 37 -93
63 -125 73 -232 89 -333 50z"/>
<path d="M2187 4524 c-58 -30 -67 -51 -67 -152 0 -60 5 -88 24 -129 28 -59 96
-137 139 -159 30 -16 132 -90 263 -189 132 -101 267 -165 348 -165 31 0 34 -3
46 -45 25 -88 135 -207 280 -301 25 -16 48 -33 52 -39 12 -17 17 -1 27 85 13
112 37 190 67 216 13 11 71 45 129 75 57 30 105 56 105 59 0 7 -132 98 -199
138 -77 44 -174 73 -246 73 l-60 0 -29 62 c-45 95 -149 191 -362 332 -223 148
-264 165 -381 165 -74 -1 -96 -5 -136 -26z"/>
<path d="M3930 4030 c-85 -48 -97 -63 -111 -142 -32 -181 59 -364 239 -479 71
-46 240 -169 282 -206 14 -12 50 -40 80 -62 177 -128 318 -195 434 -207 68 -7
84 -16 91 -53 9 -50 72 -156 129 -218 64 -70 340 -282 352 -270 3 2 9 40 14
83 13 108 37 231 53 278 17 46 89 96 258 178 60 29 109 56 109 59 0 3 -24 23
-54 43 -30 21 -65 46 -77 57 -13 11 -39 30 -59 41 -19 12 -37 25 -40 28 -4 5
-135 69 -185 91 -37 16 -127 29 -204 29 l-76 0 -33 71 c-62 133 -183 259 -372
386 -477 320 -466 314 -650 320 -124 4 -125 3 -180 -27z"/>
<path d="M1891 3224 c-89 -24 -137 -60 -152 -114 -37 -127 7 -273 114 -376 34
-34 100 -86 147 -116 47 -30 92 -61 100 -69 72 -69 293 -223 377 -261 49 -22
191 -58 231 -58 1 0 2 -6 2 -14 0 -39 76 -160 144 -229 72 -73 272 -225 282
-214 3 2 12 49 21 103 22 144 45 223 71 249 12 13 83 54 157 92 74 37 135 70
135 73 -1 5 -20 19 -139 106 -58 42 -183 113 -211 119 -8 2 -35 10 -60 18 -25
7 -78 13 -119 13 l-74 -1 -41 79 c-50 97 -173 225 -297 307 -46 31 -137 91
-202 135 -148 100 -178 116 -257 142 -88 29 -163 34 -229 16z"/>
<path d="M4213 2269 c-56 -10 -124 -41 -168 -74 -47 -36 -58 -83 -53 -215 4
-92 8 -113 36 -170 17 -36 43 -81 59 -100 40 -51 120 -125 151 -141 56 -28
185 -122 341 -247 29 -24 69 -54 90 -67 20 -14 70 -47 111 -75 71 -47 197
-107 244 -116 11 -2 41 -8 66 -14 25 -5 56 -11 70 -13 34 -4 50 -15 50 -35 0
-29 58 -141 104 -200 68 -88 149 -158 318 -275 93 -64 98 -66 102 -45 15 68
27 138 31 181 3 27 11 74 19 105 8 32 17 69 20 84 9 38 101 103 260 183 75 38
136 71 136 74 0 3 -25 24 -56 46 -31 22 -68 50 -83 63 -35 32 -177 117 -248
148 -94 43 -198 65 -287 62 -63 -2 -80 1 -84 12 -36 118 -156 276 -275 365
-34 26 -74 56 -89 67 -15 11 -85 58 -155 104 -154 100 -140 92 -232 155 -99
69 -198 113 -299 133 -89 17 -115 18 -179 5z"/>
<path d="M1633 1904 c-78 -27 -144 -72 -162 -109 -19 -39 -26 -198 -12 -263
30 -143 134 -277 292 -376 50 -32 97 -62 103 -67 6 -5 40 -32 76 -59 36 -27
97 -74 135 -104 39 -31 95 -73 125 -93 30 -21 57 -40 60 -44 13 -16 172 -102
230 -123 64 -25 200 -56 240 -56 13 0 20 -7 20 -20 0 -23 58 -144 92 -193 79
-113 200 -218 419 -364 l48 -32 10 52 c6 29 18 95 25 147 25 160 46 237 72
264 28 28 157 103 292 170 50 25 92 50 92 56 0 5 -15 20 -32 34 -18 14 -53 41
-78 60 -25 19 -65 47 -90 62 -25 15 -47 31 -50 35 -11 16 -217 108 -280 125
-39 11 -105 18 -164 19 l-98 1 -23 55 c-37 92 -93 169 -194 269 -106 105 -115
111 -431 319 -30 20 -91 62 -136 93 -154 108 -259 148 -414 157 -91 5 -113 3
-167 -15z"/>
</g>
</svg>
